<?xml version="1.0" encoding="UTF-8" standalone="no"?>
<!DOCTYPE svg PUBLIC "-//W3C//DTD SVG 1.1//EN" "http://www.w3.org/Graphics/SVG/1.1/DTD/svg11.dtd">
<svg width="100%" height="100%" viewBox="0 0 343 364" version="1.1" xmlns="http://www.w3.org/2000/svg" xmlns:xlink="http://www.w3.org/1999/xlink" xml:space="preserve" xmlns:serif="http://www.serif.com/" style="fill-rule:evenodd;clip-rule:evenodd;">
    <g transform="matrix(1,0,0,1,-1443.95,-5963.36)">
        <g transform="matrix(1,0,0,1,92.2316,5274.31)">
            <g transform="matrix(1,0,0,1,-133.127,-61.947)">
                <g transform="matrix(11.0899,0,0,11.0899,1484.84,726.567)">
                    <g id="c43_terminal">
                        <path d="M28.645,2.203L2.204,2.203C0.987,2.203 0,3.188 0,4.405L0,26.443C0,27.659 0.987,28.647 2.204,28.647L28.645,28.647C29.86,28.647 30.851,27.659 30.851,26.443L30.851,4.405C30.851,3.188 29.859,2.203 28.645,2.203ZM7.162,3.857C7.769,3.857 8.264,4.348 8.264,4.96C8.264,5.567 7.77,6.058 7.162,6.058C6.551,6.058 6.058,5.568 6.058,4.96C6.059,4.349 6.551,3.857 7.162,3.857ZM3.855,3.857C4.463,3.857 4.957,4.348 4.957,4.96C4.957,5.567 4.464,6.058 3.855,6.058C3.246,6.058 2.752,5.568 2.752,4.96C2.753,4.349 3.246,3.857 3.855,3.857ZM28.645,26.444L2.204,26.444L2.204,7.735L28.645,7.735L28.645,26.444Z" style="fill:rgb(80,80,80);fill-rule:nonzero;"/>
                        <g transform="matrix(0.585838,0,0,0.585838,0.764204,9.26925)">
                            <path d="M12.351,12.264L5.275,9.028L5.275,10.589L10.746,12.929L10.746,12.958L5.275,15.294L5.275,16.854L12.351,13.618L12.351,12.264Z" style="fill:rgb(80,80,80);fill-rule:nonzero;"/>
                        </g>
                        <g transform="matrix(0.585838,0,0,0.585838,0.764204,9.26925)">
                            <rect x="15.682" y="12.199" width="3.855" height="1.486" style="fill:rgb(80,80,80);"/>
                        </g>
                    </g>
                </g>
                <g transform="matrix(0.467074,0,0,0.467074,1631.77,839.822)">
                    <path d="M170,20C87.156,20 20,87.156 20,170C20,252.844 87.156,320 170,320C252.844,320 320,252.844 320,170C320,87.156 252.844,20 170,20Z" style="fill:none;stroke:rgb(80,80,80);stroke-width:40px;"/>
                    <g transform="matrix(1.16998,0,0,1.16998,-37.9971,-24.9974)">
                        <path d="M190.183,213.541C188.74,215.443 186.576,216.667 184.151,216.667C183.913,216.667 183.677,216.651 183.443,216.627C183.042,216.579 182.823,216.545 182.606,216.497C182.337,216.434 182.137,216.375 181.94,216.308C181.561,216.176 181.392,216.109 181.228,216.035C180.843,215.849 180.707,215.778 180.572,215.701C180.205,215.478 180.109,215.412 180.014,215.345C179.856,215.233 179.698,215.117 179.547,214.992C179.251,214.746 179.147,214.65 179.044,214.552C178.731,214.241 178.531,214.018 178.341,213.785C177.982,213.331 177.69,212.888 177.438,212.415L168.6,198.214L159.766,212.415C158.38,214.939 155.874,216.667 152.995,216.667C150.106,216.667 147.588,214.926 146.243,212.346L107.607,156.061C106.337,154.529 105.556,152.499 105.556,150.258C105.556,145.514 109.043,141.665 113.344,141.665C116.127,141.665 118.564,143.282 119.942,145.708L152.555,193.9L161.735,178.952C163.058,176.288 165.626,174.478 168.575,174.478C171.273,174.478 173.652,175.996 175.049,178.298L184.517,193.839L235.684,120.583C237.075,118.226 239.475,116.667 242.213,116.667C246.514,116.667 250,120.514 250,125.258C250,127.332 249.337,129.232 248.23,130.715L190.183,213.541Z" style="fill:rgb(80,80,80);fill-rule:nonzero;stroke:rgb(80,80,80);stroke-width:5.35px;"/>
                    </g>
                </g>
            </g>
            <g transform="matrix(1.65371,0,0,1.65371,-648.084,-9190.32)">
                <text x="1209.28px" y="6193.53px" style="font-family:'Futura-CondensedExtraBold', 'Futura', sans-serif;font-weight:800;font-stretch:condensed;font-size:33.131px;fill:rgb(109,109,109);">WAKATIME-CLI</text>
            </g>
        </g>
    </g>
</svg>
